HIERARCHY
ROOT Hips
{
	OFFSET 0.000000 0.000000 0.000000
	CHANNELS 6 Xposition Yposition Zposition Xrotation Yrotation Zrotation
	JOINT LeftUpLeg_virtual
	{
		OFFSET 0.000000 0.000000 0.000000
		CHANNELS 3 Xrotation Yrotation Zrotation
		JOINT LeftUpLeg
		{
			OFFSET 11.394100 -6.187798 -0.413800
			CHANNELS 3 Xrotation Yrotation Zrotation
			JOINT LeftLeg
			{
				OFFSET 0.430247 -32.302673 3.732800
				CHANNELS 3 Xrotation Yrotation Zrotation
				JOINT LeftFoot
				{
					OFFSET -0.430247 -48.264931 -6.423300
					CHANNELS 3 Xrotation Yrotation Zrotation
					JOINT LeftToeBase
					{
						OFFSET 4.230900 -16.068199 23.438400
						CHANNELS 3 Xrotation Yrotation Zrotation
						JOINT LeftToe_End
						{
							OFFSET 4.510700 0.695400 19.974600
							CHANNELS 3 Xrotation Yrotation Zrotation
							End Site
							{
								OFFSET 0 0 0
							}
						}
					}
				}
			}
		}
	}
	JOINT RightUpLeg_virtual
	{
		OFFSET 0.000000 0.000000 0.000000
		CHANNELS 3 Xrotation Yrotation Zrotation
		JOINT RightUpLeg
		{
			OFFSET -11.333700 -6.187798 -0.413800
			CHANNELS 3 Xrotation Yrotation Zrotation
			JOINT RightLeg
			{
				OFFSET -0.430392 -32.302628 3.733000
				CHANNELS 3 Xrotation Yrotation Zrotation
				JOINT RightFoot
				{
					OFFSET 0.430392 -48.264973 -6.423500
					CHANNELS 3 Xrotation Yrotation Zrotation
					JOINT RightToeBase
					{
						OFFSET -4.230900 -16.068199 23.438400
						CHANNELS 3 Xrotation Yrotation Zrotation
						JOINT RightToe_End
						{
							OFFSET -4.510700 0.695400 19.974600
							CHANNELS 3 Xrotation Yrotation Zrotation
							End Site
							{
								OFFSET 0 0 0
							}
						}
					}
				}
			}
		}
	}
	JOINT Spine_virtual
	{
		OFFSET 0.000000 0.000000 0.000000
		CHANNELS 3 Xrotation Yrotation Zrotation
		JOINT Spine
		{
			OFFSET -0.002400 12.777504 0.315300
			CHANNELS 3 Xrotation Yrotation Zrotation
			JOINT Spine1
			{
				OFFSET -0.002067 5.816869 0.032633
				CHANNELS 3 Xrotation Yrotation Zrotation
				JOINT Spine1_split
				{
					OFFSET -0.002067 5.816869 0.032633
					CHANNELS 3 Xrotation Yrotation Zrotation
					JOINT Spine2
					{
						OFFSET -0.002067 5.816869 0.032633
						CHANNELS 3 Xrotation Yrotation Zrotation
						JOINT Neck_virtual
						{
							OFFSET 0.000000 0.000000 0.000000
							CHANNELS 3 Xrotation Yrotation Zrotation
							JOINT Neck
							{
								OFFSET -0.003700 21.199493 -0.826900
								CHANNELS 3 Xrotation Yrotation Zrotation
								JOINT Head
								{
									OFFSET 0.000000 20.442200 4.834800
									CHANNELS 3 Xrotation Yrotation Zrotation
									JOINT HeadTop_End
									{
										OFFSET 0.000000 34.668396 4.968400
										CHANNELS 3 Xrotation Yrotation Zrotation
										End Site
										{
											OFFSET 0 0 0
										}
									}
								}
							}
						}
						JOINT LeftShoulder_virtual
						{
							OFFSET 0.000000 0.000000 0.000000
							CHANNELS 3 Xrotation Yrotation Zrotation
							JOINT LeftShoulder
							{
								OFFSET 3.288150 8.794197 -1.372250
								CHANNELS 3 Xrotation Yrotation Zrotation
								JOINT LeftShoulder_split
								{
									OFFSET 3.288150 8.794197 -1.372250
									CHANNELS 3 Xrotation Yrotation Zrotation
									JOINT LeftArm
									{
										OFFSET 11.953299 -2.279007 -0.146200
										CHANNELS 3 Xrotation Yrotation Zrotation
										JOINT LeftForeArm
										{
											OFFSET 18.448900 0.000000 0.000000
											CHANNELS 3 Xrotation Yrotation Zrotation
											JOINT LeftHand
											{
												OFFSET 29.527798 0.000000 0.000000
												CHANNELS 3 Xrotation Yrotation Zrotation
												End Site
												{
													OFFSET 0 0 0
												}
											}
										}
									}
								}
							}
						}
						JOINT RightShoulder_virtual
						{
							OFFSET 0.000000 0.000000 0.000000
							CHANNELS 3 Xrotation Yrotation Zrotation
							JOINT RightShoulder
							{
								OFFSET -3.249400 8.794197 -1.372250
								CHANNELS 3 Xrotation Yrotation Zrotation
								JOINT RightShoulder_split
								{
									OFFSET -3.249400 8.794197 -1.372250
									CHANNELS 3 Xrotation Yrotation Zrotation
									JOINT RightArm
									{
										OFFSET -11.953299 -2.279007 -0.146200
										CHANNELS 3 Xrotation Yrotation Zrotation
										JOINT RightForeArm
										{
											OFFSET -18.448900 0.000000 0.000000
											CHANNELS 3 Xrotation Yrotation Zrotation
											JOINT RightHand
											{
												OFFSET -29.527802 0.000000 0.000000
												CHANNELS 3 Xrotation Yrotation Zrotation
												End Site
												{
													OFFSET 0 0 0
												}
											}
										}
									}
								}
							}
						}
					}
				}
			}
		}
	}
}
MOTION
Frames: 10
Frame Time: 0.03333333
-0.256652 78.779541 0.639095 0.000000 0.000000 0.000000 12.243675 -52.516580 11.363487 -75.792840 17.404557 44.573859 45.956771 -16.538934 5.447496 15.487932 -6.232970 -12.674945 -11.034372 -8.090048 0.979506 0.000000 0.000000 0.000000 11.690159 -51.914011 11.168533 -31.673100 3.246692 -27.450337 47.697076 12.006006 -8.637577 -23.077358 -6.953039 28.526155 2.956575 4.732509 4.848507 0.000000 0.000000 0.000000 12.027280 -47.299029 10.467020 6.892396 3.789712 -3.934431 6.623560 7.282441 -4.699842 0.206835 -2.271000 0.638660 0.000000 0.000000 0.000000 -2.963009 7.287653 -3.377989 0.093009 13.917217 -1.362381 -2.659870 16.746287 -1.854657 0.000000 0.000000 0.000000 -4.175409 6.601157 -2.781830 -0.117202 -14.766925 0.923268 -1.125555 -1.947865 -0.207736 -21.083787 1.208955 -48.571371 -19.853442 -13.622460 -9.574155 0.000000 0.000000 0.000000 -5.170315 6.552251 -2.555946 -0.996175 18.754074 -1.153926 -3.547681 -4.188738 6.859276 -0.951286 -22.274234 54.764996 -23.611175 44.181236 24.345161 0.000000 0.000000 0.000000 
0.054312 79.224030 0.585850 0.000000 0.000000 0.000000 12.007511 -52.338958 11.316104 -74.479777 16.908215 44.020959 45.140532 -17.287337 4.858551 13.717263 -5.433377 -12.954358 -8.794939 -7.833465 0.078254 0.000000 0.000000 0.000000 11.457278 -52.547125 11.346040 -32.551172 2.956822 -27.360066 47.892344 11.415637 -8.423811 -22.936824 -7.143431 26.840873 4.418531 4.918386 5.196139 0.000000 0.000000 0.000000 12.076712 -47.454177 10.413709 6.703031 3.783093 -4.139612 6.577257 7.206317 -4.837585 0.070859 -2.320271 0.702616 0.000000 0.000000 0.000000 -3.145768 7.273634 -3.434776 0.128000 14.556892 -2.112430 -2.417282 17.366186 -2.407298 0.000000 0.000000 0.000000 -4.335514 6.588128 -2.848889 -0.271010 -14.372687 0.497261 -1.557868 -1.838218 0.074218 -20.279219 1.730161 -47.748005 -19.873991 -13.746064 -9.850267 0.000000 0.000000 0.000000 -5.166242 6.506270 -2.687508 -0.889655 18.698333 -0.748299 -5.235121 -3.563126 6.488199 -1.495748 -23.625341 54.454943 -23.674897 44.283969 24.777910 0.000000 0.000000 0.000000 
0.609691 79.964561 0.461250 0.000000 0.000000 0.000000 11.696522 -53.716993 11.538000 -72.450173 15.956123 44.103720 44.916663 -18.399420 4.240800 12.752731 -4.221958 -15.536816 -3.912940 -7.375962 -1.329720 0.000000 0.000000 0.000000 11.066162 -54.757128 11.720325 -35.661067 3.070272 -26.841243 47.784864 11.330910 -8.225499 -20.540349 -6.621433 25.881393 4.460976 5.061405 4.607387 0.000000 0.000000 0.000000 12.221015 -49.320075 10.786179 7.144193 3.644700 -4.218236 6.734226 7.110081 -5.081044 -0.021541 -2.542885 0.950282 0.000000 0.000000 0.000000 -3.133460 7.186028 -3.617953 -0.099514 15.389876 -3.154965 -2.181708 18.149250 -3.782440 0.000000 0.000000 0.000000 -4.326810 6.597669 -3.073918 -0.512134 -13.398236 -0.902955 -2.047693 -2.167586 0.398072 -19.716550 2.727082 -46.693902 -18.642865 -14.312426 -9.570856 0.000000 0.000000 0.000000 -4.963258 6.495098 -2.949195 -0.803124 18.176067 -0.014340 -6.458241 -3.628375 5.831218 -2.874124 -23.341948 52.775366 -24.421463 45.472756 26.251041 0.000000 0.000000 0.000000 
1.128349 80.655449 0.303650 0.000000 0.000000 0.000000 11.490878 -56.773936 12.078962 -69.315089 15.534085 44.827758 44.256344 -19.236328 3.496793 12.137142 -2.308835 -18.947525 -1.102594 -7.063979 -1.644430 0.000000 0.000000 0.000000 10.911984 -58.510057 12.466203 -40.685412 3.522442 -25.691736 47.716275 11.721119 -8.097143 -16.245094 -5.358170 25.448371 3.282944 5.105678 3.518319 0.000000 0.000000 0.000000 12.445356 -52.915794 11.608356 8.009721 3.336870 -4.154055 7.030946 6.923811 -5.387483 -0.087112 -2.724135 1.548267 0.000000 0.000000 0.000000 -2.905219 7.009594 -3.904174 -0.471572 16.459004 -4.457164 -2.030519 19.010845 -5.744551 0.000000 0.000000 0.000000 -4.179175 6.558044 -3.444953 -0.738084 -11.923619 -2.977039 -2.348293 -2.766927 0.517500 -19.454821 3.922088 -45.689458 -16.213875 -14.595848 -8.678774 0.000000 0.000000 0.000000 -4.687936 6.412859 -3.317499 -0.706391 17.094524 0.841157 -6.915666 -3.901220 5.110979 -4.470482 -21.013765 49.881551 -25.744542 47.809839 28.671184 0.000000 0.000000 0.000000 
1.469967 81.043541 -0.070229 0.000000 0.000000 0.000000 12.222020 -61.427211 13.420457 -64.586248 16.880058 46.241183 42.440443 -18.609554 2.403961 9.559942 1.279358 -20.796094 -2.044375 -6.930566 -0.610151 0.000000 0.000000 0.000000 11.442452 -63.457457 13.756897 -47.015194 4.070314 -23.791004 47.372870 12.468141 -8.031828 -10.921502 -3.525399 24.980208 2.097885 5.064843 2.407919 0.000000 0.000000 0.000000 13.169288 -57.923460 13.102062 9.128901 2.825700 -3.897673 7.430273 6.570895 -5.720953 -0.230686 -3.044072 2.058398 0.000000 0.000000 0.000000 -2.558950 6.693730 -4.225091 -0.844912 17.713814 -5.858539 -2.035424 19.728585 -7.984550 0.000000 0.000000 0.000000 -3.938469 6.363558 -3.919445 -0.867655 -10.098021 -5.176446 -2.554868 -3.324337 0.276791 -19.247483 5.133113 -44.856038 -12.997964 -14.305928 -7.383715 0.000000 0.000000 0.000000 -4.413822 6.148397 -3.746496 -0.580640 15.449657 1.563684 -6.435205 -4.084308 4.383708 -5.635390 -16.766434 46.223828 -27.515702 51.091796 31.855053 0.000000 0.000000 0.000000 
1.601750 81.050888 -0.543243 0.000000 0.000000 0.000000 14.732812 -67.369789 16.246932 -58.786735 20.124200 48.098189 40.186053 -16.377866 1.282817 4.719652 6.242970 -20.680549 -4.422738 -6.754210 0.388151 0.000000 0.000000 0.000000 13.463952 -69.344650 16.257332 -53.950373 4.555071 -21.199765 46.674248 13.454453 -8.006443 -5.459422 -1.370917 24.157464 1.641340 4.950256 1.633002 0.000000 0.000000 0.000000 15.123350 -63.972071 15.754803 10.335529 2.071629 -3.480309 7.863517 5.976834 -6.033091 -0.447225 -3.552431 2.162159 0.000000 0.000000 0.000000 -2.210438 6.147944 -4.505814 -1.161819 19.069531 -7.136909 -2.302424 20.175952 -10.163441 0.000000 0.000000 0.000000 -3.629021 5.891702 -4.426223 -0.862676 -8.033902 -6.936751 -2.491683 -3.371518 -0.133822 -18.793733 6.358972 -44.294979 -9.487857 -13.615624 -6.012077 0.000000 0.000000 0.000000 -4.127282 5.590521 -4.190651 -0.410720 13.295831 1.811528 -5.247171 -4.124383 3.736650 -6.122991 -11.110689 42.101303 -29.709124 54.886963 35.660558 0.000000 0.000000 0.000000 
1.510791 80.809769 -1.203079 0.000000 0.000000 0.000000 21.008531 -73.848832 22.601456 -53.365535 24.551378 50.305149 38.610083 -13.532246 0.544405 -0.653820 11.019469 -20.265238 -5.456834 -6.260794 0.254448 0.000000 0.000000 0.000000 18.925360 -75.528491 21.890316 -60.529294 4.846085 -18.193930 45.459362 14.662512 -8.010863 -0.567941 1.062711 22.971318 2.104003 4.870555 1.186279 0.000000 0.000000 0.000000 19.878193 -70.298595 20.883732 11.535675 1.121843 -2.970392 8.327733 5.107282 -6.253311 -0.647403 -3.910283 1.862302 0.000000 0.000000 0.000000 -1.902891 5.347439 -4.693944 -1.224272 20.378371 -8.135091 -2.952660 20.428266 -12.082744 0.000000 0.000000 0.000000 -3.169592 5.080291 -4.854202 -0.719798 -5.788009 -7.955209 -2.304507 -2.926671 -0.753834 -17.540083 7.654061 -44.005133 -6.102113 -13.089525 -4.881250 0.000000 0.000000 0.000000 -3.825078 4.706033 -4.573087 -0.239523 10.628840 1.504696 -3.760963 -4.164021 3.088888 -6.221114 -4.998999 37.600171 -33.088226 58.995964 40.598334 0.000000 0.000000 0.000000 
1.229452 80.437607 -1.980263 0.000000 0.000000 0.000000 36.545791 -79.571888 38.035288 -48.911306 29.292318 52.528133 37.876712 -11.039046 0.336952 -5.014245 14.247518 -21.196814 -6.343485 -5.494243 -0.047557 0.000000 0.000000 0.000000 34.070070 -80.963013 36.885217 -66.126818 5.014581 -14.932125 43.603166 15.990125 -7.994246 3.454228 3.607788 21.870433 2.798104 4.856894 0.813368 0.000000 0.000000 0.000000 30.900858 -75.810278 31.905815 12.647195 -0.021623 -2.503038 8.847816 3.975562 -6.369739 -0.733738 -3.887865 1.407417 0.000000 0.000000 0.000000 -1.609208 4.250302 -4.778218 -0.814292 21.382559 -8.652186 -3.897704 20.668530 -13.700995 0.000000 0.000000 0.000000 -2.489839 3.971854 -5.131538 -0.499608 -3.556522 -8.094279 -1.964879 -2.499144 -1.173666 -15.186401 8.956390 -43.923581 -3.116330 -14.006272 -4.245313 0.000000 0.000000 0.000000 -3.377564 3.545276 -4.845498 -0.112126 7.758279 0.640243 -2.348574 -4.258216 2.704654 -6.265578 0.365864 32.782698 -39.245837 63.254423 48.062638 0.000000 0.000000 0.000000 
0.785747 80.043518 -2.655121 0.000000 0.000000 0.000000 69.411326 -82.441626 70.657214 -45.708189 34.021497 54.453294 37.618083 -9.014182 0.489797 -8.536773 15.641154 -23.225490 -8.516142 -4.589625 0.355556 0.000000 0.000000 0.000000 75.101830 -83.826761 77.575335 -70.627742 5.157156 -11.687350 41.403637 17.343606 -7.943585 6.647676 6.203415 21.466221 2.436943 4.877585 0.201592 0.000000 0.000000 0.000000 53.088489 -79.302704 53.868131 13.550585 -1.347817 -2.231288 9.453369 2.647239 -6.401474 -0.510236 -3.611633 1.174364 0.000000 0.000000 0.000000 -1.179659 2.907609 -4.814365 0.382107 22.018682 -8.569432 -4.976695 21.313708 -15.022574 0.000000 0.000000 0.000000 -1.589304 2.638790 -5.280066 -0.291419 -1.638251 -7.485949 -1.523791 -2.363425 -1.187668 -12.236053 10.202565 -43.885881 -0.529991 -17.032887 -4.146003 0.000000 0.000000 0.000000 -2.696896 2.167836 -5.020892 -0.061105 4.942760 -0.538605 -1.086324 -4.567295 2.510912 -6.408507 4.116016 27.666224 -50.404873 67.019305 60.199928 0.000000 0.000000 0.000000 
0.126574 79.842682 -3.236649 0.000000 0.000000 0.000000 102.010733 -81.271137 102.945492 -43.948951 38.816027 56.002422 37.771291 -6.681593 0.708847 -12.232029 15.697822 -24.891151 -10.040218 -3.562851 0.601098 0.000000 0.000000 0.000000 113.941441 -81.810360 115.943335 -73.883550 5.358835 -8.759666 39.246113 18.547024 -7.899602 9.017399 8.754634 21.937325 0.715919 4.893323 -0.698226 0.000000 0.000000 0.000000 81.206277 -79.535381 81.675204 14.206362 -2.781562 -2.214254 10.167739 1.227483 -6.443445 -0.151319 -3.249048 1.152152 0.000000 0.000000 0.000000 -0.456373 1.464945 -4.891912 2.592196 22.330258 -7.992754 -6.032247 22.490759 -16.154466 0.000000 0.000000 0.000000 -0.490340 1.202024 -5.383329 -0.141293 -0.335584 -6.403435 -0.850781 -2.764389 -0.864514 -9.431599 11.474865 -43.475172 1.630927 -22.090415 -4.566784 0.000000 0.000000 0.000000 -1.811104 0.686847 -5.160468 -0.039878 2.481478 -1.644698 0.259242 -5.032874 2.701600 -6.526107 5.846799 22.492286 -65.959444 68.862036 76.446763 0.000000 0.000000 0.000000 
